<svg width="500" height="500" viewBox="0 0 500 500" fill="none" xmlns="http://www.w3.org/2000/svg">
<g clip-path="url(#clip0_13_4)">
<rect width="500" height="500" rx="250" fill="white"/>
<rect width="500" height="500" rx="250" fill="black"/>
<path d="M113.121 203.583C36.4688 180.627 1.09457e-05 133.886 1.09457e-05 86.6246C1.09457e-05 60.8112 66.9556 45.5122 83.4033 65.407C169.707 169.798 310.142 237.487 484 249.5C310.142 261.513 169.707 329.202 83.4033 433.593C66.9555 453.488 1.09457e-05 438.189 1.09457e-05 412.375C1.09457e-05 365.114 36.4688 318.373 113.121 295.417C196.085 270.57 289.963 254.74 392.432 249.5C289.963 244.26 196.085 228.43 113.121 203.583Z" fill="white"/>
</g>
<defs>
<clipPath id="clip0_13_4">
<rect width="500" height="500" rx="250" fill="white"/>
</clipPath>
</defs>
</svg>
